<svg width="50" height="20" viewBox="0 0 50 20" fill="none" xmlns="http://www.w3.org/2000/svg">
<g clip-path="url(#clip0_1_108)">
<path d="M-10 2H30V18H-10V2Z" fill="#000066"/>
<path d="M-10 2V3.7888L25.528 18H30V16.2112L-5.528 2.0032H-10V2ZM30 2V3.7888L-5.528 18H-10V16.2112L25.528 2H30Z" fill="white"/>
<path d="M6.668 2V18H13.332V2H6.668ZM-10 7.3344V12.6656H30V7.3344H-10Z" fill="white"/>
<path d="M-10 8.4V11.6H30V8.4H-10ZM8 2V18H12V2H8ZM-10 18L3.332 12.6656H6.32L-7.02 18H-10ZM-10 2L3.332 7.3344H0.352L-10 3.1936V2ZM13.684 7.3344L27.02 2H30L16.668 7.3344H13.68H13.684ZM30.004 18L16.664 12.6656H19.644L30 16.8064V18H30.004Z" fill="#CC0000"/>
</g>
<path d="M36.7812 10.3994H32.4678V13.9268H37.4785V15H31.1553V5.04688H37.4102V6.12695H32.4678V9.32617H36.7812V10.3994ZM46.7617 15H45.4424L40.4316 7.33008V15H39.1123V5.04688H40.4316L45.4561 12.751V5.04688H46.7617V15Z" fill="white"/>
<defs>
<clipPath id="clip0_1_108">
<rect width="20" height="16" fill="white" transform="translate(0 2)"/>
</clipPath>
</defs>
</svg>
