<svg width="76" height="40" viewBox="0 0 76 40" fill="none" xmlns="http://www.w3.org/2000/svg">
<path d="M0.5 4C0.5 2.067 2.067 0.5 4 0.5H72C73.933 0.5 75.5 2.067 75.5 4V36C75.5 37.933 73.933 39.5 72 39.5H4C2.067 39.5 0.5 37.933 0.5 36V4Z" stroke="white"/>
<path d="M22.3203 26V14.625H26.0391C27.2734 14.625 28.2005 14.8802 28.8203 15.3906C29.4453 15.901 29.7578 16.6562 29.7578 17.6562C29.7578 18.1875 29.6068 18.6589 29.3047 19.0703C29.0026 19.4766 28.5911 19.7917 28.0703 20.0156C28.6849 20.1875 29.1693 20.5156 29.5234 21C29.8828 21.4792 30.0625 22.0521 30.0625 22.7188C30.0625 23.7396 29.7318 24.5417 29.0703 25.125C28.4089 25.7083 27.474 26 26.2656 26H22.3203ZM23.8203 20.6797V24.7734H26.2969C26.9948 24.7734 27.5443 24.5938 27.9453 24.2344C28.3516 23.8698 28.5547 23.3698 28.5547 22.7344C28.5547 21.3646 27.8099 20.6797 26.3203 20.6797H23.8203ZM23.8203 19.4766H26.0859C26.7422 19.4766 27.2656 19.3125 27.6562 18.9844C28.0521 18.6562 28.25 18.2109 28.25 17.6484C28.25 17.0234 28.0677 16.5703 27.7031 16.2891C27.3385 16.0026 26.7839 15.8594 26.0391 15.8594H23.8203V19.4766ZM33.9528 26H32.5075V14H33.9528V26ZM36.2103 21.6953C36.2103 20.8672 36.3718 20.1224 36.6947 19.4609C37.0228 18.7995 37.4759 18.2891 38.0541 17.9297C38.6374 17.5703 39.3015 17.3906 40.0463 17.3906C41.1973 17.3906 42.127 17.7891 42.8353 18.5859C43.5489 19.3828 43.9056 20.4427 43.9056 21.7656V21.8672C43.9056 22.6901 43.7468 23.4297 43.4291 24.0859C43.1166 24.737 42.666 25.2448 42.0775 25.6094C41.4942 25.974 40.8223 26.1562 40.0619 26.1562C38.916 26.1562 37.9864 25.7578 37.2728 24.9609C36.5645 24.1641 36.2103 23.1094 36.2103 21.7969V21.6953ZM37.6634 21.8672C37.6634 22.8047 37.8796 23.5573 38.3119 24.125C38.7494 24.6927 39.3327 24.9766 40.0619 24.9766C40.7963 24.9766 41.3796 24.6901 41.8119 24.1172C42.2442 23.5391 42.4603 22.7318 42.4603 21.6953C42.4603 20.7682 42.239 20.0182 41.7963 19.4453C41.3588 18.8672 40.7754 18.5781 40.0463 18.5781C39.3327 18.5781 38.7572 18.862 38.3197 19.4297C37.8822 19.9974 37.6634 20.8099 37.6634 21.8672ZM45.6944 21.7031C45.6944 20.3854 45.9991 19.3385 46.6084 18.5625C47.2178 17.7812 48.0251 17.3906 49.0303 17.3906C50.0616 17.3906 50.8662 17.7552 51.4444 18.4844L51.5147 17.5469H52.835V25.7969C52.835 26.8906 52.5095 27.7526 51.8584 28.3828C51.2126 29.013 50.3428 29.3281 49.2491 29.3281C48.6397 29.3281 48.0433 29.1979 47.46 28.9375C46.8767 28.6771 46.4314 28.3203 46.1241 27.8672L46.8741 27C47.4939 27.7656 48.2517 28.1484 49.1475 28.1484C49.8506 28.1484 50.3975 27.9505 50.7881 27.5547C51.184 27.1589 51.3819 26.6016 51.3819 25.8828V25.1562C50.8037 25.8229 50.0147 26.1562 49.0147 26.1562C48.0251 26.1562 47.223 25.7578 46.6084 24.9609C45.9991 24.1641 45.6944 23.0781 45.6944 21.7031ZM47.1475 21.8672C47.1475 22.8203 47.3428 23.5703 47.7334 24.1172C48.1241 24.6589 48.6709 24.9297 49.3741 24.9297C50.2855 24.9297 50.9548 24.5156 51.3819 23.6875V19.8281C50.9392 19.0208 50.2751 18.6172 49.3897 18.6172C48.6866 18.6172 48.1371 18.8906 47.7412 19.4375C47.3454 19.9844 47.1475 20.7943 47.1475 21.8672Z" fill="white"/>
</svg>
